<?xml version="1.0" encoding="UTF-8"?>
<!DOCTYPE svg PUBLIC "-//W3C//DTD SVG 1.1//EN" "http://www.w3.org/Graphics/SVG/1.1/DTD/svg11.dtd">
<svg xmlns="http://www.w3.org/2000/svg" version="1.1" width="452px" height="68px" style="shape-rendering:geometricPrecision; text-rendering:geometricPrecision; image-rendering:optimizeQuality; fill-rule:evenodd; clip-rule:evenodd" xmlns:xlink="http://www.w3.org/1999/xlink">
<g><path style="opacity:1" fill="#c45d6a" d="M 37.5,16.5 C 38.1667,16.5 38.5,16.8333 38.5,17.5C 38.5,17.8333 38.5,18.1667 38.5,18.5C 37.5084,18.6716 36.8417,18.3382 36.5,17.5C 37.1667,17.5 37.5,17.1667 37.5,16.5 Z"/></g>
<g><path style="opacity:1" fill="#b73b46" d="M 38.5,18.5 C 38.5,18.1667 38.5,17.8333 38.5,17.5C 45.5314,18.6746 52.5314,20.0079 59.5,21.5C 59.5,22.1667 59.1667,22.5 58.5,22.5C 51.7676,21.4834 45.1009,20.1501 38.5,18.5 Z"/></g>
<g><path style="opacity:1" fill="#b63643" d="M 71.5,27.5 C 69.7739,29.8201 69.1072,32.4867 69.5,35.5C 68.8333,35.5 68.5,35.1667 68.5,34.5C 69.9064,29.0687 67.9064,26.7353 62.5,27.5C 65.2301,24.9493 64.5634,23.616 60.5,23.5C 60.5,23.1667 60.5,22.8333 60.5,22.5C 61.8734,22.6567 63.2068,22.49 64.5,22C 68.6355,17.2363 71.9688,17.7363 74.5,23.5C 74.4387,25.6528 73.4387,26.9862 71.5,27.5 Z M 71.5,27.5 C 66.3176,27.214 64.9843,25.0473 67.5,21C 73.2217,20.5473 74.555,22.714 71.5,27.5 Z"/></g>
<g><path style="opacity:1" fill="#b53441" d="M 27.5,13.5 C 30.5343,15.247 33.8676,16.247 37.5,16.5C 37.5,17.1667 37.1667,17.5 36.5,17.5C 34.5992,17.5668 32.7659,17.2335 31,16.5C 28.2166,17.8864 28.0499,19.3864 30.5,21C 30.1667,21.1667 29.8333,21.3333 29.5,21.5C 27.0075,21.4003 24.5075,21.067 22,20.5C 18.3573,25.4545 15.524,30.7878 13.5,36.5C 10.1709,33.4991 7.50427,33.9991 5.5,38C 6.30501,39.1127 6.97168,40.2794 7.5,41.5C 3.94352,39.6101 3.61019,37.1101 6.5,34C 8.76399,33.7638 10.9307,33.2638 13,32.5C 15.5,28.1667 18,23.8333 20.5,19.5C 18.6799,15.3079 20.0132,12.6412 24.5,11.5C 26.0377,11.4534 27.0377,12.1201 27.5,13.5 Z M 27.5,13.5 C 29.0028,16.5214 28.1694,18.8547 25,20.5C 20.0109,18.7278 19.5109,16.2278 23.5,13C 24.8193,12.805 26.1526,12.9717 27.5,13.5 Z"/></g>
<g><path style="opacity:1" fill="#ad1e2d" d="M 87.5,21.5 C 94.1643,21.0002 97.331,24.0002 97,30.5C 95.3005,31.4061 93.4672,31.7394 91.5,31.5C 91.7692,29.5714 91.2692,27.9047 90,26.5C 87.9451,27.672 87.2784,29.3386 88,31.5C 90,34.8333 92.6667,37.5 96,39.5C 101.268,51.8337 97.435,56.667 84.5,54C 81.6298,51.4869 80.6298,48.4869 81.5,45C 85.5038,43.8954 87.5038,45.3954 87.5,49.5C 88.8333,49.5 90.1667,49.5 91.5,49.5C 91.6602,47.8008 91.4935,46.1341 91,44.5C 88,41.5 85,38.5 82,35.5C 79.1776,28.8314 81.011,24.1647 87.5,21.5 Z"/></g>
<g><path style="opacity:1" fill="#ac1a2b" d="M 431.5,21.5 C 438.295,20.3031 442.462,22.9698 444,29.5C 444.89,36.914 444.557,44.2473 443,51.5C 437.301,56.746 431.634,56.746 426,51.5C 424.034,42.8197 424.034,34.153 426,25.5C 427.5,23.5313 429.333,22.198 431.5,21.5 Z M 433.5,26.5 C 434.5,26.5 435.5,26.5 436.5,26.5C 437.498,33.1384 437.665,39.805 437,46.5C 435.944,51.2135 434.277,51.5469 432,47.5C 431,40.3249 431.5,33.3249 433.5,26.5 Z"/></g>
<g><path style="opacity:1" fill="#c45d6a" d="M 59.5,21.5 C 60.1667,21.5 60.5,21.8333 60.5,22.5C 60.5,22.8333 60.5,23.1667 60.5,23.5C 59.5084,23.6716 58.8417,23.3382 58.5,22.5C 59.1667,22.5 59.5,22.1667 59.5,21.5 Z"/></g>
<g><path style="opacity:1" fill="#aa1427" d="M 108.5,22.5 C 114.167,22.5 119.833,22.5 125.5,22.5C 125.5,24.1667 125.5,25.8333 125.5,27.5C 123.833,27.5 122.167,27.5 120.5,27.5C 120.5,36.5 120.5,45.5 120.5,54.5C 118.167,54.5 115.833,54.5 113.5,54.5C 113.5,45.5 113.5,36.5 113.5,27.5C 111.833,27.5 110.167,27.5 108.5,27.5C 108.5,25.8333 108.5,24.1667 108.5,22.5 Z"/></g>
<g><path style="opacity:1" fill="#af2632" d="M 136.5,22.5 C 141.5,22.5 146.5,22.5 151.5,22.5C 151.5,23.8333 151.5,25.1667 151.5,26.5C 149.167,26.5 146.833,26.5 144.5,26.5C 144.5,29.5 144.5,32.5 144.5,35.5C 146.167,35.5 147.833,35.5 149.5,35.5C 149.5,37.1667 149.5,38.8333 149.5,40.5C 147.833,40.5 146.167,40.5 144.5,40.5C 144.5,43.8333 144.5,47.1667 144.5,50.5C 146.833,50.5 149.167,50.5 151.5,50.5C 151.5,51.8333 151.5,53.1667 151.5,54.5C 146.5,54.5 141.5,54.5 136.5,54.5C 136.5,43.8333 136.5,33.1667 136.5,22.5 Z"/></g>
<g><path style="opacity:1" fill="#a91326" d="M 163.5,22.5 C 165.833,22.5 168.167,22.5 170.5,22.5C 170.5,33.1667 170.5,43.8333 170.5,54.5C 168.167,54.5 165.833,54.5 163.5,54.5C 163.5,43.8333 163.5,33.1667 163.5,22.5 Z"/></g>
<g><path style="opacity:1" fill="#ad212e" d="M 191.5,40.5 C 191.217,39.7109 190.717,39.0442 190,38.5C 189.501,43.8229 189.334,49.1563 189.5,54.5C 187.5,54.5 185.5,54.5 183.5,54.5C 183.5,43.8333 183.5,33.1667 183.5,22.5C 185.604,22.2011 187.604,22.5344 189.5,23.5C 191.333,27.8333 193.167,32.1667 195,36.5C 195.499,31.8452 195.666,27.1785 195.5,22.5C 197.5,22.5 199.5,22.5 201.5,22.5C 201.5,33.1667 201.5,43.8333 201.5,54.5C 199.712,54.7852 198.045,54.4519 196.5,53.5C 194.543,49.2563 192.876,44.923 191.5,40.5 Z"/></g>
<g><path style="opacity:1" fill="#ac1b2b" d="M 215.5,22.5 C 218.167,22.5 220.833,22.5 223.5,22.5C 224.217,28.2522 225.384,33.9189 227,39.5C 228.617,33.9139 229.784,28.2472 230.5,22.5C 233.167,22.5 235.833,22.5 238.5,22.5C 238.5,33.1667 238.5,43.8333 238.5,54.5C 236.833,54.5 235.167,54.5 233.5,54.5C 234.099,29.3948 232.765,29.3948 229.5,54.5C 227.833,54.5 226.167,54.5 224.5,54.5C 221.235,29.3948 219.901,29.3948 220.5,54.5C 218.5,54.5 216.5,54.5 214.5,54.5C 215.375,43.8602 215.709,33.1936 215.5,22.5 Z"/></g>
<g><path style="opacity:1" fill="#ac1b2c" d="M 256.5,22.5 C 259.5,22.5 262.5,22.5 265.5,22.5C 267.166,33.164 268.833,43.8307 270.5,54.5C 265.612,55.3844 263.112,53.3844 263,48.5C 261.644,47.6198 260.144,47.2865 258.5,47.5C 258.007,49.8056 257.674,52.139 257.5,54.5C 255.167,54.5 252.833,54.5 250.5,54.5C 252.5,43.8333 254.5,33.1667 256.5,22.5 Z M 260.5,32.5 C 261.687,35.9458 262.354,39.6125 262.5,43.5C 261.5,43.5 260.5,43.5 259.5,43.5C 259.552,39.8019 259.886,36.1352 260.5,32.5 Z"/></g>
<g><path style="opacity:1" fill="#ab182a" d="M 293.5,36.5 C 293.56,37.0431 293.893,37.3764 294.5,37.5C 295.494,32.544 295.827,27.544 295.5,22.5C 297.167,22.5 298.833,22.5 300.5,22.5C 300.5,33.1667 300.5,43.8333 300.5,54.5C 298.533,54.7394 296.699,54.4061 295,53.5C 293.277,48.3873 291.277,43.3873 289,38.5C 288.501,43.8229 288.334,49.1563 288.5,54.5C 286.5,54.5 284.5,54.5 282.5,54.5C 282.5,43.8333 282.5,33.1667 282.5,22.5C 284.604,22.2011 286.604,22.5344 288.5,23.5C 290.457,27.7437 292.124,32.077 293.5,36.5 Z"/></g>
<g><path style="opacity:1" fill="#b53243" d="M 295.5,22.5 C 295.827,27.544 295.494,32.544 294.5,37.5C 293.893,37.3764 293.56,37.0431 293.5,36.5C 294.167,31.8333 294.833,27.1667 295.5,22.5 Z"/></g>
<g><path style="opacity:1" fill="#ad1e2d" d="M 313.5,22.5 C 315.604,22.2011 317.604,22.5344 319.5,23.5C 321.333,27.8333 323.167,32.1667 325,36.5C 325.499,31.8452 325.666,27.1785 325.5,22.5C 327.5,22.5 329.5,22.5 331.5,22.5C 331.5,33.1667 331.5,43.8333 331.5,54.5C 329.712,54.7852 328.045,54.4519 326.5,53.5C 324.59,48.6826 322.424,44.0159 320,39.5C 319.501,44.4889 319.334,49.4889 319.5,54.5C 317.5,54.5 315.5,54.5 313.5,54.5C 313.5,43.8333 313.5,33.1667 313.5,22.5 Z"/></g>
<g><path style="opacity:1" fill="#ab1829" d="M 363.5,22.5 C 368.959,22.1033 374.292,22.6033 379.5,24C 380.701,24.9025 381.535,26.0692 382,27.5C 382.667,34.8333 382.667,42.1667 382,49.5C 381.535,50.9308 380.701,52.0975 379.5,53C 374.292,54.3967 368.959,54.8967 363.5,54.5C 363.5,43.8333 363.5,33.1667 363.5,22.5 Z M 370.5,26.5 C 372.408,26.8834 373.908,27.8834 375,29.5C 375.667,35.5 375.667,41.5 375,47.5C 374.3,49.032 373.134,50.032 371.5,50.5C 370.502,42.5277 370.169,34.5277 370.5,26.5 Z"/></g>
<g><path style="opacity:1" fill="#ac1c2c" d="M 399.5,22.5 C 402.448,22.2229 405.281,22.5562 408,23.5C 410.029,33.8104 411.862,44.1437 413.5,54.5C 408.187,55.8854 405.687,53.8854 406,48.5C 403.978,47.0091 402.312,47.3424 401,49.5C 400.506,51.1341 400.34,52.8008 400.5,54.5C 398.167,54.5 395.833,54.5 393.5,54.5C 395.286,43.7855 397.286,33.1188 399.5,22.5 Z M 403.5,32.5 C 404.402,35.9968 405.069,39.6634 405.5,43.5C 404.127,43.6567 402.793,43.49 401.5,43C 402.396,39.5723 403.062,36.0723 403.5,32.5 Z"/></g>
<g><path style="opacity:1" fill="#b32e3f" d="M 31.5,23.5 C 32.4971,22.2875 33.4971,22.4542 34.5,24C 33.4232,24.4696 32.4232,24.3029 31.5,23.5 Z"/></g>
<g><path style="opacity:1" fill="#ae2230" d="M 51.5,31.5 C 50.5,32.5 49.5,33.5 48.5,34.5C 49.0755,31.4285 47.9088,29.4285 45,28.5C 42.9264,29.0717 41.7598,30.405 41.5,32.5C 40.8333,32.5 40.5,32.1667 40.5,31.5C 40.5858,30.5041 40.2524,29.6708 39.5,29C 41.0536,25.7821 43.5536,23.6155 47,22.5C 48,23.1667 49,23.8333 50,24.5C 51.3461,26.9132 51.8461,29.2465 51.5,31.5 Z"/></g>
<g><path style="opacity:1" fill="#b22c3c" d="M 35.5,26.5 C 36.4971,25.2875 37.4971,25.4542 38.5,27C 37.4232,27.4696 36.4232,27.3029 35.5,26.5 Z"/></g>
<g><path style="opacity:1" fill="#b4313e" d="M 62.5,27.5 C 59.2034,29.6013 55.5368,30.9347 51.5,31.5C 54.7966,29.3987 58.4632,28.0653 62.5,27.5 Z"/></g>
<g><path style="opacity:1" fill="#b22d3a" d="M 40.5,31.5 C 40.5,32.1667 40.8333,32.5 41.5,32.5C 41.5569,33.609 41.8902,34.609 42.5,35.5C 41.1067,34.7402 39.6067,34.0735 38,33.5C 30.8505,35.079 23.6838,36.579 16.5,38C 14.9474,39.0968 13.614,40.4301 12.5,42C 13.9597,42.8113 14.293,43.6446 13.5,44.5C 11.556,43.1993 9.55596,42.1993 7.5,41.5C 11.3103,42.024 13.3103,40.3574 13.5,36.5C 22.4516,35.6918 31.4516,34.0251 40.5,31.5 Z"/></g>
<g><path style="opacity:1" fill="#be4c56" d="M 68.5,34.5 C 68.5,35.1667 68.8333,35.5 69.5,35.5C 68.7347,38.0961 68.4013,40.7628 68.5,43.5C 67.8333,43.5 67.5,43.1667 67.5,42.5C 67.1936,39.6146 67.5269,36.9479 68.5,34.5 Z"/></g>
<g><path style="opacity:1" fill="#c96a76" d="M 191.5,40.5 C 190.833,45.1667 190.167,49.8333 189.5,54.5C 189.334,49.1563 189.501,43.8229 190,38.5C 190.717,39.0442 191.217,39.7109 191.5,40.5 Z"/></g>
<g><path style="opacity:1" fill="#b63746" d="M 49.5,39.5 C 51.2624,40.2623 52.2624,41.5956 52.5,43.5C 50.7376,42.7377 49.7376,41.4044 49.5,39.5 Z"/></g>
<g><path style="opacity:1" fill="#be4c56" d="M 67.5,42.5 C 67.5,43.1667 67.8333,43.5 68.5,43.5C 67.7347,46.0961 67.4013,48.7628 67.5,51.5C 66.8333,51.5 66.5,51.1667 66.5,50.5C 66.1936,47.6146 66.5269,44.9479 67.5,42.5 Z"/></g>
<g><path style="opacity:1" fill="#b83d49" d="M 52.5,43.5 C 54.2624,44.2623 55.2624,45.5956 55.5,47.5C 53.7376,46.7377 52.7376,45.4044 52.5,43.5 Z"/></g>
<g><path style="opacity:1" fill="#b63644" d="M 15.5,46.5 C 15.56,45.9569 15.8933,45.6236 16.5,45.5C 21.6185,50.1106 21.2851,50.4439 15.5,46.5 Z"/></g>
<g><path style="opacity:1" fill="#ad1f2e" d="M 344.5,48.5 C 346.5,48.5 348.5,48.5 350.5,48.5C 350.5,50.5 350.5,52.5 350.5,54.5C 348.5,54.5 346.5,54.5 344.5,54.5C 344.5,52.5 344.5,50.5 344.5,48.5 Z"/></g>
<g><path style="opacity:1" fill="#c96c77" d="M 66.5,50.5 C 66.5,51.1667 66.8333,51.5 67.5,51.5C 67.6716,52.4916 67.3382,53.1583 66.5,53.5C 66.5,52.8333 66.1667,52.5 65.5,52.5C 65.3284,51.5084 65.6618,50.8417 66.5,50.5 Z"/></g>
<g><path style="opacity:1" fill="#b53342" d="M 21.5,51.5 C 21.56,50.9569 21.8933,50.6236 22.5,50.5C 27.6185,55.1106 27.2851,55.4439 21.5,51.5 Z"/></g>
<g><path style="opacity:1" fill="#b53542" d="M 55.5,47.5 C 57.969,50.1438 60.3024,52.9772 62.5,56C 64.9342,56.3329 65.9342,55.1662 65.5,52.5C 66.1667,52.5 66.5,52.8333 66.5,53.5C 66.7619,55.5638 67.9286,56.8971 70,57.5C 70.6667,59.5 70.6667,61.5 70,63.5C 69.3292,64.2524 68.4959,64.5858 67.5,64.5C 64.5044,65.5129 62.171,64.5129 60.5,61.5C 60.5,60.8333 60.5,60.1667 60.5,59.5C 61.5735,58.7494 61.7401,57.7494 61,56.5C 58.6422,53.7777 56.8089,50.7777 55.5,47.5 Z M 67.5,64.5 C 61.5661,62.7714 61.0661,60.1047 66,56.5C 70.0009,58.5043 70.5009,61.1709 67.5,64.5 Z"/></g>
<g><path style="opacity:1" fill="#b4333f" d="M 48.5,34.5 C 48.6287,36.2161 48.962,37.8828 49.5,39.5C 48.2058,38.7101 47.0391,37.7101 46,36.5C 41.8946,42.4479 38.7279,48.9479 36.5,56C 36.8082,57.4595 37.4749,58.6261 38.5,59.5C 38.5,60.1667 38.5,60.8333 38.5,61.5C 37.7638,63.2294 36.4305,64.2294 34.5,64.5C 32.623,65.6246 30.7897,65.2912 29,63.5C 28.7744,60.905 28.2744,58.405 27.5,56C 30.2033,56.5264 32.87,56.0264 35.5,54.5C 38.4341,48.362 40.7674,42.0287 42.5,35.5C 44.6208,35.6747 46.6208,35.3414 48.5,34.5 Z M 34.5,64.5 C 28.5661,62.7714 28.0661,60.1047 33,56.5C 37.0009,58.5043 37.5009,61.1709 34.5,64.5 Z"/></g>
<g><path style="opacity:1" fill="#c25865" d="M 38.5,59.5 C 45.8333,59.5 53.1667,59.5 60.5,59.5C 60.5,60.1667 60.5,60.8333 60.5,61.5C 53.1667,61.5 45.8333,61.5 38.5,61.5C 38.5,60.8333 38.5,60.1667 38.5,59.5 Z"/></g>
</svg>
